<?xml version="1.0" standalone="no"?>
<!DOCTYPE svg PUBLIC "-//W3C//DTD SVG 20010904//EN"
 "http://www.w3.org/TR/2001/REC-SVG-20010904/DTD/svg10.dtd">
<svg version="1.0" xmlns="http://www.w3.org/2000/svg"
 width="700.000000pt" height="700.000000pt" viewBox="0 0 700.000000 700.000000"
 preserveAspectRatio="xMidYMid meet">
<metadata>
Created by potrace 1.11, written by Peter Selinger 2001-2013
</metadata>
<g transform="translate(0.000000,700.000000) scale(0.100000,-0.100000)"
fill="#000000" stroke="none">
<path d="M3338 6335 c-2 -1 -41 -5 -88 -9 -47 -3 -96 -8 -110 -10 -14 -3 -43
-7 -65 -10 -22 -3 -50 -7 -61 -10 -12 -2 -38 -7 -58 -10 -20 -3 -55 -11 -78
-16 -24 -6 -51 -12 -60 -15 -266 -63 -587 -199 -823 -348 -320 -203 -618 -487
-826 -787 -113 -163 -272 -458 -309 -575 -7 -22 -16 -44 -20 -50 -32 -42 -160
-549 -141 -558 3 -2 327 -3 720 -3 l714 1 42 100 c50 116 79 173 136 258 229
342 605 572 1019 624 130 17 331 7 470 -22 200 -42 449 -159 584 -275 159
-135 245 -232 334 -376 46 -73 142 -278 142 -302 0 -6 259 -10 723 -10 l723 0
-12 66 c-39 218 -114 462 -203 660 -266 587 -718 1066 -1282 1359 -239 125
-530 226 -767 269 -132 23 -150 26 -277 40 -53 5 -422 14 -427 9z"/>
<path d="M3395 4418 c-330 -38 -615 -250 -748 -558 -51 -117 -68 -195 -72
-335 -5 -174 22 -299 96 -446 195 -389 635 -591 1054 -484 274 70 491 248 615
506 61 128 82 221 84 369 1 154 -6 204 -44 319 -140 416 -551 679 -985 629z"/>
<path d="M695 3051 c2 -4 6 -27 10 -51 22 -157 98 -417 170 -590 183 -436 439
-783 821 -1110 176 -151 476 -332 714 -430 163 -66 410 -142 535 -164 17 -3
39 -7 50 -9 11 -3 45 -8 75 -12 30 -4 63 -9 73 -11 142 -26 547 -26 734 1 180
26 448 91 558 134 11 5 58 23 105 41 94 36 315 141 370 175 142 89 186 117
265 174 50 36 92 68 95 71 3 3 37 32 75 64 108 92 262 250 356 366 96 118 179
234 179 248 0 6 4 12 8 14 24 9 172 287 234 438 73 177 138 388 163 532 3 18
10 51 15 72 5 22 7 42 5 45 -2 4 -326 6 -721 6 l-719 0 -23 -60 c-118 -300
-307 -535 -563 -701 -189 -123 -384 -193 -624 -223 -62 -8 -303 -6 -342 3 -11
2 -43 8 -70 12 -164 24 -442 144 -588 253 -217 164 -367 356 -475 606 l-48
110 -720 1 c-397 0 -719 -2 -717 -5z"/>
</g>
</svg>
