<svg height="11.3778in" viewBox="0 0 1024 1024" width="11.3778in" xmlns="http://www.w3.org/2000/svg"><path d="m512 96.8c-207.72.14-379.83 152.53-410.76 351.61 0 0 211.27.39 211.27.39 26.99-84.43 106.09-145.55 199.49-145.6 93.25.11 172.24 61.13 199.33 145.41 0 0 211.2.19 211.2.19-30.71-199.2-202.78-351.74-410.53-352zm0 280c-75.11 0-136 60.89-136 136s60.89 136 136 136c75.11 0 136-60.89 136-136 0-75.11-60.89-136-136-136zm-410.53 200c30.71 199.2 202.78 351.74 410.53 352 207.72-.14 379.83-152.53 410.76-351.61 0 0-211.27-.39-211.27-.39-26.99 84.43-106.09 145.55-199.49 145.6-93.25-.11-172.24-61.13-199.33-145.41 0 0-211.2-.19-211.2-.19z"/></svg>